<mxfile host="app.diagrams.net" modified="2023-05-13T13:57:25.434Z" agent="Mozilla/5.0 (Windows NT 10.0; Win64; x64) AppleWebKit/537.36 (KHTML, like Gecko) Chrome/113.0.0.0 Safari/537.36" etag="mJ06UspJWOq9efV7JLq0" version="21.3.0" type="device">
  <diagram name="PÃ¡gina-1" id="68uzU-0KBeXKDYnnxW28">
    <mxGraphModel dx="1434" dy="756" grid="1" gridSize="10" guides="1" tooltips="1" connect="1" arrows="1" fold="1" page="1" pageScale="1" pageWidth="827" pageHeight="1169" math="0" shadow="0">
      <root>
        <mxCell id="0" />
        <mxCell id="1" parent="0" />
        <mxCell id="kjfIzL6Q5Ygdz6DxVzST-7" value="" style="rounded=0;whiteSpace=wrap;html=1;fillColor=none;strokeWidth=2;" vertex="1" parent="1">
          <mxGeometry x="140" y="20" width="400" height="440" as="geometry" />
        </mxCell>
        <mxCell id="kjfIzL6Q5Ygdz6DxVzST-19" style="edgeStyle=orthogonalEdgeStyle;rounded=0;orthogonalLoop=1;jettySize=auto;html=1;entryX=0;entryY=0.5;entryDx=0;entryDy=0;" edge="1" parent="1" source="kjfIzL6Q5Ygdz6DxVzST-1" target="kjfIzL6Q5Ygdz6DxVzST-9">
          <mxGeometry relative="1" as="geometry" />
        </mxCell>
        <mxCell id="kjfIzL6Q5Ygdz6DxVzST-20" style="edgeStyle=orthogonalEdgeStyle;rounded=0;orthogonalLoop=1;jettySize=auto;html=1;" edge="1" parent="1" source="kjfIzL6Q5Ygdz6DxVzST-1" target="kjfIzL6Q5Ygdz6DxVzST-10">
          <mxGeometry relative="1" as="geometry" />
        </mxCell>
        <mxCell id="kjfIzL6Q5Ygdz6DxVzST-21" style="edgeStyle=orthogonalEdgeStyle;rounded=0;orthogonalLoop=1;jettySize=auto;html=1;entryX=0;entryY=0.5;entryDx=0;entryDy=0;" edge="1" parent="1" source="kjfIzL6Q5Ygdz6DxVzST-1" target="kjfIzL6Q5Ygdz6DxVzST-12">
          <mxGeometry relative="1" as="geometry" />
        </mxCell>
        <mxCell id="kjfIzL6Q5Ygdz6DxVzST-1" value="cliente&lt;br&gt;" style="shape=umlActor;verticalLabelPosition=bottom;verticalAlign=top;html=1;outlineConnect=0;" vertex="1" parent="1">
          <mxGeometry x="50" y="60" width="30" height="60" as="geometry" />
        </mxCell>
        <mxCell id="kjfIzL6Q5Ygdz6DxVzST-28" style="edgeStyle=orthogonalEdgeStyle;rounded=0;orthogonalLoop=1;jettySize=auto;html=1;entryX=0;entryY=0.5;entryDx=0;entryDy=0;" edge="1" parent="1" source="kjfIzL6Q5Ygdz6DxVzST-6" target="kjfIzL6Q5Ygdz6DxVzST-22">
          <mxGeometry relative="1" as="geometry" />
        </mxCell>
        <mxCell id="kjfIzL6Q5Ygdz6DxVzST-34" style="edgeStyle=orthogonalEdgeStyle;rounded=0;orthogonalLoop=1;jettySize=auto;html=1;entryX=0;entryY=0.5;entryDx=0;entryDy=0;" edge="1" parent="1" source="kjfIzL6Q5Ygdz6DxVzST-6" target="kjfIzL6Q5Ygdz6DxVzST-30">
          <mxGeometry relative="1" as="geometry" />
        </mxCell>
        <mxCell id="kjfIzL6Q5Ygdz6DxVzST-6" value="Empleado&lt;br&gt;" style="shape=umlActor;verticalLabelPosition=bottom;verticalAlign=top;html=1;outlineConnect=0;" vertex="1" parent="1">
          <mxGeometry x="50" y="330" width="30" height="60" as="geometry" />
        </mxCell>
        <mxCell id="kjfIzL6Q5Ygdz6DxVzST-8" value="Identicar usuario" style="ellipse;whiteSpace=wrap;html=1;" vertex="1" parent="1">
          <mxGeometry x="370" y="90" width="100" height="70" as="geometry" />
        </mxCell>
        <mxCell id="kjfIzL6Q5Ygdz6DxVzST-14" style="edgeStyle=orthogonalEdgeStyle;rounded=0;orthogonalLoop=1;jettySize=auto;html=1;" edge="1" parent="1" source="kjfIzL6Q5Ygdz6DxVzST-9" target="kjfIzL6Q5Ygdz6DxVzST-8">
          <mxGeometry relative="1" as="geometry" />
        </mxCell>
        <mxCell id="kjfIzL6Q5Ygdz6DxVzST-9" value="cambiar pin" style="ellipse;whiteSpace=wrap;html=1;" vertex="1" parent="1">
          <mxGeometry x="170" y="40" width="90" height="50" as="geometry" />
        </mxCell>
        <mxCell id="kjfIzL6Q5Ygdz6DxVzST-15" style="edgeStyle=orthogonalEdgeStyle;rounded=0;orthogonalLoop=1;jettySize=auto;html=1;" edge="1" parent="1" source="kjfIzL6Q5Ygdz6DxVzST-10">
          <mxGeometry relative="1" as="geometry">
            <mxPoint x="370" y="125" as="targetPoint" />
          </mxGeometry>
        </mxCell>
        <mxCell id="kjfIzL6Q5Ygdz6DxVzST-10" value="obtener movimientos y saldo" style="ellipse;whiteSpace=wrap;html=1;" vertex="1" parent="1">
          <mxGeometry x="170" y="100" width="90" height="50" as="geometry" />
        </mxCell>
        <mxCell id="kjfIzL6Q5Ygdz6DxVzST-17" style="edgeStyle=orthogonalEdgeStyle;rounded=0;orthogonalLoop=1;jettySize=auto;html=1;entryX=0;entryY=0.5;entryDx=0;entryDy=0;" edge="1" parent="1" source="kjfIzL6Q5Ygdz6DxVzST-12" target="kjfIzL6Q5Ygdz6DxVzST-8">
          <mxGeometry relative="1" as="geometry" />
        </mxCell>
        <mxCell id="kjfIzL6Q5Ygdz6DxVzST-12" value="realizar retiros" style="ellipse;whiteSpace=wrap;html=1;" vertex="1" parent="1">
          <mxGeometry x="170" y="160" width="90" height="50" as="geometry" />
        </mxCell>
        <mxCell id="kjfIzL6Q5Ygdz6DxVzST-18" value="includes" style="text;html=1;strokeColor=none;fillColor=none;align=center;verticalAlign=middle;whiteSpace=wrap;rounded=0;" vertex="1" parent="1">
          <mxGeometry x="310" y="90" width="60" height="30" as="geometry" />
        </mxCell>
        <mxCell id="kjfIzL6Q5Ygdz6DxVzST-26" style="edgeStyle=orthogonalEdgeStyle;rounded=0;orthogonalLoop=1;jettySize=auto;html=1;entryX=0;entryY=0.5;entryDx=0;entryDy=0;" edge="1" parent="1" source="kjfIzL6Q5Ygdz6DxVzST-22" target="kjfIzL6Q5Ygdz6DxVzST-25">
          <mxGeometry relative="1" as="geometry" />
        </mxCell>
        <mxCell id="kjfIzL6Q5Ygdz6DxVzST-22" value="Poner billetes" style="ellipse;whiteSpace=wrap;html=1;" vertex="1" parent="1">
          <mxGeometry x="170" y="310" width="90" height="50" as="geometry" />
        </mxCell>
        <mxCell id="kjfIzL6Q5Ygdz6DxVzST-25" value="Identificar empleado" style="ellipse;whiteSpace=wrap;html=1;" vertex="1" parent="1">
          <mxGeometry x="350" y="335" width="90" height="50" as="geometry" />
        </mxCell>
        <mxCell id="kjfIzL6Q5Ygdz6DxVzST-27" value="include" style="text;html=1;strokeColor=none;fillColor=none;align=center;verticalAlign=middle;whiteSpace=wrap;rounded=0;" vertex="1" parent="1">
          <mxGeometry x="240" y="350" width="60" height="30" as="geometry" />
        </mxCell>
        <mxCell id="kjfIzL6Q5Ygdz6DxVzST-33" style="edgeStyle=orthogonalEdgeStyle;rounded=0;orthogonalLoop=1;jettySize=auto;html=1;entryX=0;entryY=0.5;entryDx=0;entryDy=0;" edge="1" parent="1" source="kjfIzL6Q5Ygdz6DxVzST-30" target="kjfIzL6Q5Ygdz6DxVzST-25">
          <mxGeometry relative="1" as="geometry" />
        </mxCell>
        <mxCell id="kjfIzL6Q5Ygdz6DxVzST-30" value="Actualizar saldo en sistema" style="ellipse;whiteSpace=wrap;html=1;" vertex="1" parent="1">
          <mxGeometry x="170" y="380" width="90" height="50" as="geometry" />
        </mxCell>
      </root>
    </mxGraphModel>
  </diagram>
</mxfile>
